<mxfile host="65bd71144e">
    <diagram id="PSJChXvGtuFYrbk7m2bh" name="Page-1">
        <mxGraphModel dx="1392" dy="623" grid="1" gridSize="10" guides="1" tooltips="1" connect="1" arrows="1" fold="1" page="1" pageScale="1" pageWidth="850" pageHeight="1100" math="0" shadow="0">
            <root>
                <mxCell id="0"/>
                <mxCell id="1" parent="0"/>
                <mxCell id="3" value="&lt;b&gt;&lt;font style=&quot;font-size: 19px&quot;&gt;Specification&lt;/font&gt;&lt;/b&gt;:&lt;br&gt;&lt;br&gt;I need all products with 'red' in the name and include the product types and brands" style="rounded=1;whiteSpace=wrap;html=1;align=center;fillColor=#0050ef;fontColor=#ffffff;strokeColor=#001DBC;" vertex="1" parent="1">
                    <mxGeometry x="90" y="160" width="210" height="210" as="geometry"/>
                </mxCell>
                <mxCell id="4" value="" style="shape=flexArrow;endArrow=classic;html=1;endWidth=42;endSize=6.5;fillColor=#dae8fc;gradientColor=#7ea6e0;strokeColor=#6c8ebf;exitX=1;exitY=0.5;exitDx=0;exitDy=0;" edge="1" parent="1" source="3" target="5">
                    <mxGeometry width="50" height="50" relative="1" as="geometry">
                        <mxPoint x="355" y="264.5" as="sourcePoint"/>
                        <mxPoint x="520" y="265" as="targetPoint"/>
                        <Array as="points">
                            <mxPoint x="440" y="265"/>
                        </Array>
                    </mxGeometry>
                </mxCell>
                <mxCell id="5" value="&lt;font style=&quot;font-size: 17px&quot;&gt;ListAsync(specification)&lt;/font&gt;" style="rounded=1;whiteSpace=wrap;html=1;dashed=1;fillColor=#008a00;strokeColor=#005700;fontColor=#ffffff;" vertex="1" parent="1">
                    <mxGeometry x="610" y="220" width="220" height="90" as="geometry"/>
                </mxCell>
                <mxCell id="7" value="Generic Repository" style="text;html=1;strokeColor=none;fillColor=none;align=center;verticalAlign=middle;whiteSpace=wrap;rounded=0;dashed=1;fontSize=19;" vertex="1" parent="1">
                    <mxGeometry x="625" y="180" width="190" height="30" as="geometry"/>
                </mxCell>
                <mxCell id="8" value="IQueryable&amp;lt;T&amp;gt;" style="text;html=1;strokeColor=none;fillColor=none;align=center;verticalAlign=middle;whiteSpace=wrap;rounded=0;dashed=1;fontSize=17;" vertex="1" parent="1">
                    <mxGeometry x="380" y="220" width="135" height="30" as="geometry"/>
                </mxCell>
            </root>
        </mxGraphModel>
    </diagram>
</mxfile>